# xmcd CD Database Entry
#
# Track frame offsets:
# 150
# 17867
# 38587
# 57550
# 79825
# 98302
# 113017
# 133210
# 151155
# 173252
# 190907
# 195607
# 221545
#
# Disc length: 2994 seconds
#
# Revision: 2
# Processed by: cddbd v1.4PL0 Copyright (c) Steve Scherf et al.
# Submitted via: tcd 2.0b
#
DISCID=9f0bb00d
DTITLE=Kathy Mattea - The Innocent Years
DYEAR=1900
DGENRE=
TTITLE0=The Innocent Years
TTITLE1=Trouble WIth Angels
TTITLE2=Why Can't We
TTITLE3=Prove That By Me
TTITLE4=Callin' My Name
TTITLE5=Out of the Blue
TTITLE6=I Have Always Loved You
TTITLE7=(Love Is) My Last Word
TTITLE8=Trust Me
TTITLE9=That's the Deal
TTITLE10=The Innocent Years (Reprise)
TTITLE11=BFD
TTITLE12=
EXTD=
EXTT0=
EXTT1=
EXTT2=
EXTT3=
EXTT4=
EXTT5=
EXTT6=
EXTT7=
EXTT8=
EXTT9=
EXTT10=
EXTT11=
EXTT12=
PLAYORDER=
